<?xml version="1.0" encoding="UTF-8"?>
<svg id="Capa_1" data-name="Capa 1" xmlns="http://www.w3.org/2000/svg" viewBox="0 0 1554.57 507.48">
  <defs>
    <style>
      .cls-1 {
        fill: #748561;
      }

      .cls-2 {
        fill: #738461;
      }
    </style>
  </defs>
  <path class="cls-1" d="M207.23,0C189.47,0,146.19,7.52,115.87,28.34c-17.78,12.21-32.96,29.21-32.96,29.21-6.51,7.29-11.45,13.97-14.96,19.08C67.96.31,0,.31,0,.31v507.17h68.05l-.1-305.17c-.99-68.9,34.09-122.39,102.11-142.01,91.46-26.38,168.19,16.02,175.31,119.85-.12,31.49-.03,270.44,0,327.33h66.76V186.46C412.13-.05,258.84,0,207.23,0Z"/>
  <polyline class="cls-2" points="1186.6 417.4 1027.57 0 960.57 0 1155.84 507.48 1208.19 507.4 1402.57 0 1346.55 0"/>
  <path class="cls-1" d="M1554.55,507.48l.02-507.48h-66l-.04,507.48"/>
  <path class="cls-1" d="M929.91,448.91c-12.95,0-33.91,10.87-46.93-8.2-8.85-12.95-9.63-28.68-9.16-35.44,0-120.34.17-120.83.17-236.13,0-46.66-9.38-78.81-35.15-109.99C784.19-6.93,677.08-7.12,616.98,11.64c-42.97,13.41-76.65,43.43-88.12,54.82-17.19,17.07-2.28,2.26-17.19,17.07l46.27,34.93c42.31-64.31,161.95-88.15,220-36.72,17.22,15.26,36.85,51.92,21.97,73.24-29.26,41.92-142.8,53.19-192.49,72.74-36.77,14.47-100.69,51.83-115.6,116.91-1.41,6.15-10.35,47.98,12.1,88.03,41.09,73.31,160.13,92.12,238,50.85,33.49-17.75,53.86-43.69,65-60.98.93,8.21,3.77,23.2,14.1,38.31,0,0,6.73,9.92,16.34,17.71,25.32,20.51,65.86,24.66,94.68,13.89l-2.12-43.52ZM569.91,409.09c-8.47-22.14-17.93-59.46-.65-91.13,16.04-29.4,48.44-41.32,92.65-58.2,13.08-4.99,54.33-18.93,85.18-28.45,52.97-16.35,40.89-18.94,40.89-20.18-.43.63-.98,1.42-1.68,2.35-20.7,27.36-51.54,36.61-60.58,39.48-43.1,13.69-128.87,60.64-150.35,125.4-4.47,13.47-5.27,25.05-5.46,30.73ZM738.52,434.29c-38.77,23.34-117.71,33.38-152.46-.78-21.58-21.21-7.89-60.18,17.87-71.02,26.37-11.1,73.73,3.15,112.81-17.79,60.62-32.49,71.14-68.83,89.16-129.71.96-3.26.71-3.21,3-10.19.8,7.02.89,8.06,1,10.19,4.33,84.12,9.51,170.6-71.39,219.29Z"/>
</svg>